<?xml version="1.0" standalone="no"?>
<!DOCTYPE svg PUBLIC "-//W3C//DTD SVG 20010904//EN"
 "http://www.w3.org/TR/2001/REC-SVG-20010904/DTD/svg10.dtd">
<svg version="1.0" xmlns="http://www.w3.org/2000/svg"
 width="48.000000pt" height="48.000000pt" viewBox="0 0 48.000000 48.000000"
 preserveAspectRatio="xMidYMid meet">

<g transform="translate(0.000000,48.000000) scale(0.100000,-0.100000)"
fill="#000000" stroke="none">
<path d="M200 464 c-61 -16 -65 -19 -75 -52 -6 -19 -2 -25 24 -35 39 -15 45
-42 22 -110 -11 -31 -23 -76 -26 -101 -8 -48 5 -75 63 -138 32 -35 50 -26 86
45 l28 55 -18 64 c-36 133 -38 152 -23 183 9 19 27 34 49 41 47 15 49 31 6 49
-43 18 -65 18 -136 -1z m88 -11 c-16 -2 -40 -2 -55 0 -16 2 -3 4 27 4 30 0 43
-2 28 -4z m-98 -13 c-8 -5 -22 -9 -30 -9 -10 0 -8 3 5 9 27 12 43 12 25 0z
m104 -15 c-4 -8 -7 -15 -9 -15 -2 0 -5 7 -9 15 -3 9 0 15 9 15 9 0 12 -6 9
-15z m-34 -5 c0 -5 -2 -10 -4 -10 -2 0 -20 -7 -40 -15 -28 -12 -36 -12 -36 -3
0 15 35 35 63 37 9 0 17 -3 17 -9z m-98 -15 c0 -5 -5 -11 -11 -13 -6 -2 -11 4
-11 13 0 9 5 15 11 13 6 -2 11 -8 11 -13z m107 -31 c8 -7 -13 -21 -41 -28 -34
-8 -37 6 -5 23 22 11 22 11 -3 5 -19 -4 -22 -3 -10 5 13 9 47 6 59 -5z m-11
-56 c-4 -12 -56 -33 -64 -25 -2 2 -2 12 2 21 7 19 68 23 62 4z m12 -53 c0 -12
-82 -65 -100 -65 -17 0 4 42 27 53 13 6 19 13 13 17 -5 3 6 6 25 7 23 1 35 -4
35 -12z m10 -30 c0 -3 -27 -18 -60 -35 -33 -17 -60 -28 -60 -25 0 2 26 18 58
34 64 34 62 33 62 26z m10 -24 c0 -5 3 -16 6 -25 5 -12 -10 -24 -60 -47 -36
-17 -70 -28 -76 -24 -23 14 -7 35 53 68 67 38 77 42 77 28z m10 -91 c0 -12
-11 -32 -25 -45 -18 -16 -22 -25 -13 -28 7 -2 -2 -3 -20 -2 -18 1 -40 9 -49
18 -14 14 -10 18 43 45 33 16 60 30 62 30 1 1 2 -7 2 -18z m-80 -10 c-8 -5
-19 -10 -25 -10 -5 0 -3 5 5 10 8 5 20 10 25 10 6 0 3 -5 -5 -10z"/>
</g>
</svg>
